<!DOCTYPE svg PUBLIC "-//W3C//DTD SVG 1.1//EN" "http://www.w3.org/Graphics/SVG/1.1/DTD/svg11.dtd">
<!-- Uploaded to: SVG Repo, www.svgrepo.com, Transformed by: SVG Repo Mixer Tools -->
<svg width="256px" height="256px" viewBox="-4.8 -4.8 57.60 57.60" xmlns="http://www.w3.org/2000/svg" fill="#ffffff" stroke="#ffffff" transform="matrix(1, 0, 0, 1, 0, 0)rotate(0)" stroke-width="0.00048000000000000007">
<g id="SVGRepo_bgCarrier" stroke-width="0" transform="translate(0,0), scale(1)">
<rect x="-4.8" y="-4.8" width="57.60" height="57.60" rx="28.8" fill="#000000" strokewidth="0"/>
</g>
<g id="SVGRepo_tracerCarrier" stroke-linecap="round" stroke-linejoin="round" stroke="#CCCCCC" stroke-width="0.096"/>
<g id="SVGRepo_iconCarrier"> <title>accessibility-sign-language</title> <g id="Layer_2" data-name="Layer 2"> <g id="invisible_box" data-name="invisible box"> <rect width="48" height="48" fill="none"/> </g> <g id="Q3_icons" data-name="Q3 icons"> <g> <path d="M21.1,25.5a2.1,2.1,0,0,0-2.9.8,4.4,4.4,0,0,1-2.6,2.4,4.9,4.9,0,0,1-6.5-5.5,4.8,4.8,0,0,1,9-1.3A2.1,2.1,0,0,0,20.6,23a2,2,0,0,0,1.2-2.8,9.1,9.1,0,0,0-3.4-3.6L25.8,13a2.3,2.3,0,0,0,1.1-2.6,2.1,2.1,0,0,0-2.8-1.1l-8.2,4,6.6-7.9a2.1,2.1,0,0,0,.1-2.7,2,2,0,0,0-3.1,0l-7.7,9.2,1.1-4.3a2.1,2.1,0,0,0-1.1-2.4A2.1,2.1,0,0,0,9,6.6L5.3,22A11.3,11.3,0,0,0,5,23.8v.4A8.9,8.9,0,0,0,13.9,33a8.6,8.6,0,0,0,7.8-4.8A2,2,0,0,0,21.1,25.5Z"/> <path d="M34.1,15.3a8.8,8.8,0,0,0-7.8,4.8,2,2,0,0,0,.6,2.7,2.1,2.1,0,0,0,2.9-.7,4.6,4.6,0,0,1,2.6-2.5,4.9,4.9,0,0,1,6.5,5.6,4.8,4.8,0,0,1-4,3.7,4.5,4.5,0,0,1-5-2.5,2.2,2.2,0,0,0-2.5-1.1,2,2,0,0,0-1.2,2.8,9.4,9.4,0,0,0,3.4,3.7l-7.4,3.6A2,2,0,0,0,21,37.6a2.1,2.1,0,0,0,2,1.6l.9-.2,8-3.9-6.4,7.5a2.1,2.1,0,0,0,.2,3,1.9,1.9,0,0,0,1.2.4,1.7,1.7,0,0,0,1.5-.7l7.8-9.1-1.1,4.5a2.2,2.2,0,0,0,1.3,2.5h.7A1.9,1.9,0,0,0,39,41.8l3.7-15.5a11.3,11.3,0,0,0,.3-1.8v-.3A8.9,8.9,0,0,0,34.1,15.3Z"/> </g> </g> </g> </g>
</svg>